<svg xmlns="http://www.w3.org/2000/svg" viewBox="0 0 200 48" fill="none">
  <defs>
    <linearGradient id="iconGrad" x1="0%" y1="0%" x2="100%" y2="100%">
      <stop offset="0%" stop-color="#0891b2"/>
      <stop offset="100%" stop-color="#6d28d9"/>
    </linearGradient>
    <linearGradient id="borderGrad" x1="0%" y1="0%" x2="100%" y2="100%">
      <stop offset="0%" stop-color="#0891b2" stop-opacity="0.3"/>
      <stop offset="100%" stop-color="#6d28d9" stop-opacity="0.3"/>
    </linearGradient>
  </defs>
  <!-- Icon box -->
  <rect x="1" y="5" width="38" height="38" rx="10" fill="#ffffff"/>
  <rect x="1" y="5" width="38" height="38" rx="10" fill="url(#iconGrad)" opacity="0.08"/>
  <rect x="1.5" y="5.5" width="37" height="37" rx="9.5" stroke="url(#borderGrad)" stroke-width="1"/>
  <!-- Beamed eighth notes -->
  <path d="M14 32V14h1v18h-1z" fill="url(#iconGrad)"/>
  <path d="M26 30V12h1v18h-1z" fill="url(#iconGrad)"/>
  <!-- Note heads -->
  <ellipse cx="12" cy="33" rx="4" ry="3" transform="rotate(-15 12 33)" fill="url(#iconGrad)"/>
  <ellipse cx="24" cy="31" rx="4" ry="3" transform="rotate(-15 24 31)" fill="url(#iconGrad)"/>
  <!-- Beam -->
  <path d="M14 14L27 12v3L14 17z" fill="url(#iconGrad)"/>
  <!-- Glow dot -->
  <circle cx="35" cy="9" r="3.5" fill="#a855f7" opacity="0.7"/>
  <!-- Text -->
  <text x="48" y="27" font-family="system-ui, -apple-system, sans-serif" font-size="18" font-weight="800" fill="#1a1a2e" letter-spacing="-0.3">Thư Viện</text>
  <text x="148" y="27" font-family="system-ui, -apple-system, sans-serif" font-size="18" font-weight="800" fill="#0891b2" letter-spacing="-0.3">Số</text>
</svg>
